<svg fill="currentColor" viewBox="0 0 24 24">
  <g class="teddy-bear-1__teddy-bear teddy-bear-1__1">
    <path d="M10.5 9c0-.552.672-1 1.5-1s1.5.448 1.5 1-.672 1-1.5 1-1.5-.448-1.5-1Zm12.466 7.098a3.373 3.373 0 0 1-2.018 2.629c.033.243.052.499.052.773 0 2.322-1.178 3.5-3.5 3.5-.512 0-.959-.067-1.359-.181-1.303.145-2.697.17-4.141.181-1.443-.011-2.838-.036-4.141-.181A4.919 4.919 0 0 1 6.5 23C4.178 23 3 21.822 3 19.5c0-.275.019-.531.052-.773a3.375 3.375 0 0 1-2.018-2.629 3.335 3.335 0 0 1 .708-2.585c.083-.09 1.99-2.129 4.431-3.668A10.027 10.027 0 0 1 6 8.001c0-.846.098-1.573.256-2.232a5.261 5.261 0 0 1-.309-.286c-1.263-1.263-1.263-2.273 0-3.535s2.273-1.263 3.535 0c.105.105.199.207.286.309A9.435 9.435 0 0 1 12 2.001c.847 0 1.573.098 2.232.256.086-.101.181-.204.286-.309 1.263-1.263 2.273-1.263 3.535 0s1.263 2.273 0 3.535a5.288 5.288 0 0 1-.309.286c.158.659.256 1.385.256 2.232 0 .684-.07 1.283-.173 1.844 2.441 1.539 4.348 3.579 4.431 3.668.592.725.839 1.662.708 2.585ZM12 4c-3.028 0-4 .972-4 4s.972 4 4 4 4-.972 4-4-.972-4-4-4ZM3.865 16.897c.452-.46 1.083-.742 1.886-.847l2.122-3.165a3.99 3.99 0 0 1-1.021-1.101c-1.861 1.25-3.353 2.782-3.604 3.047a1.366 1.366 0 0 0-.234.983c.065.482.397.908.851 1.083ZM6.5 21c1.233 0 1.5-.267 1.5-1.5S7.733 18 6.5 18 5 18.267 5 19.5 5.267 21 6.5 21Zm7.702-.052A4.84 4.84 0 0 1 14 19.5c0-1.771.69-2.872 2.045-3.296l-1.507-2.525c-.727.21-1.564.322-2.538.322a9.36 9.36 0 0 1-2.287-.268L8.04 16.227C9.341 16.67 10 17.765 10 19.5c0 .548-.071 1.028-.202 1.448 1.447.064 2.957.064 4.404 0ZM19 19.5c0-1.233-.267-1.5-1.5-1.5s-1.5.267-1.5 1.5.267 1.5 1.5 1.5 1.5-.267 1.5-1.5Zm1.986-3.686a1.365 1.365 0 0 0-.234-.983c-.251-.265-1.742-1.797-3.604-3.047a4.007 4.007 0 0 1-.838.961l1.975 3.309c.787.109 1.404.391 1.85.845a1.37 1.37 0 0 0 .851-1.083v-.002Z" class="teddy-bear-1__Vector"/>
  </g>
</svg>
