<svg fill="currentColor" viewBox="0 0 24 24">
  <defs>
    <clipPath id="eye-open__a" class="eye-open__a">
      <path d="M0 0h24v24H0z"/>
    </clipPath>
  </defs>
  <g class="eye-open__eye-open" clip-path="url(#eye-open__a)">
    <path d="M23.271 9.419C21.72 6.893 18.192 2.655 12 2.655c-6.192 0-9.72 4.238-11.271 6.764a4.908 4.908 0 0 0 0 5.162C2.28 17.107 5.808 21.345 12 21.345c6.192 0 9.72-4.238 11.271-6.764a4.908 4.908 0 0 0 0-5.162Zm-1.705 4.115C20.234 15.7 17.219 19.345 12 19.345S3.766 15.7 2.434 13.534a2.918 2.918 0 0 1 0-3.068C3.766 8.3 6.781 4.655 12 4.655s8.234 3.641 9.566 5.811a2.918 2.918 0 0 1 0 3.068Z" class="eye-open__Vector"/>
    <path d="M12 7a5 5 0 1 0 0 10 5 5 0 0 0 0-10Zm0 8a3 3 0 1 1 0-5.999A3 3 0 0 1 12 15Z" class="eye-open__Vector"/>
  </g>
</svg>
