<svg width="20" height="20" viewBox="0 0 20 20" fill="none" xmlns="http://www.w3.org/2000/svg">
<mask id="mask0_1215_9231" style="mask-type:luminance" maskUnits="userSpaceOnUse" x="1" y="1" width="18" height="18">
<path fill-rule="evenodd" clip-rule="evenodd" d="M1.66701 1.66699H18.3V18.2918H1.66701V1.66699Z" fill="white"/>
</mask>
<g mask="url(#mask0_1215_9231)">
<path fill-rule="evenodd" clip-rule="evenodd" d="M6.37534 2.91699C4.27451 2.91699 2.91701 4.35616 2.91701 6.58283V13.3762C2.91701 15.6037 4.27451 17.042 6.37534 17.042H13.5837C15.6895 17.042 17.0503 15.6037 17.0503 13.3762V6.58283C17.0503 4.35616 15.6895 2.91699 13.5837 2.91699H6.37534ZM13.5837 18.292H6.37534C3.55867 18.292 1.66701 16.3162 1.66701 13.3762V6.58283C1.66701 3.64283 3.55867 1.66699 6.37534 1.66699H13.5837C16.4045 1.66699 18.3003 3.64283 18.3003 6.58283V13.3762C18.3003 16.3162 16.4045 18.292 13.5837 18.292Z" fill="#61646B"/>
</g>
<path fill-rule="evenodd" clip-rule="evenodd" d="M4.40117 14.3172C4.24617 14.3172 4.09201 14.2606 3.97117 14.1456C3.72034 13.9089 3.71034 13.5122 3.94784 13.2631L5.22117 11.9189C5.89534 11.2031 7.03284 11.1681 7.75201 11.8431L8.55034 12.6531C8.77284 12.8781 9.13451 12.8822 9.35784 12.6622C9.44201 12.5631 11.257 10.3589 11.257 10.3589C11.602 9.94056 12.0887 9.68222 12.6295 9.62889C13.1712 9.58139 13.697 9.73889 14.1162 10.0831C14.152 10.1122 14.1845 10.1406 16.0145 12.0197C16.2553 12.2664 16.2512 12.6622 16.0037 12.9031C15.757 13.1456 15.3603 13.1381 15.1195 12.8914C15.1195 12.8914 13.412 11.1389 13.2903 11.0206C13.1612 10.9147 12.9537 10.8531 12.7495 10.8731C12.542 10.8939 12.3553 10.9931 12.2228 11.1539C10.2862 13.5031 10.2628 13.5256 10.2312 13.5564C9.51617 14.2581 8.36201 14.2464 7.65951 13.5297C7.65951 13.5297 6.88451 12.7431 6.87117 12.7272C6.67867 12.5489 6.33534 12.5606 6.12951 12.7781L4.85451 14.1222C4.73117 14.2522 4.56617 14.3172 4.40117 14.3172Z" fill="#61646B"/>
<path fill-rule="evenodd" clip-rule="evenodd" d="M7.13134 6.77441C6.6705 6.77441 6.2955 7.14941 6.2955 7.61108C6.2955 8.07275 6.6705 8.44858 7.13217 8.44858C7.59383 8.44858 7.96967 8.07275 7.96967 7.61108C7.96967 7.15025 7.59384 6.77525 7.13134 6.77441ZM7.13217 9.69858C5.98133 9.69858 5.0455 8.76191 5.0455 7.61108C5.0455 6.46025 5.98133 5.52441 7.13217 5.52441C8.28384 5.52525 9.21967 6.46191 9.21967 7.61108C9.21967 8.76191 8.283 9.69858 7.13217 9.69858Z" fill="#61646B"/>
</svg>
