<svg fill="currentColor" viewBox="0 0 24 24">
  <defs>
    <clipPath id="language-exchange-1__a" class="language-exchange-1__a">
      <path d="M0 0h24v24H0z"/>
    </clipPath>
  </defs>
  <g class="language-exchange-1__language-exchange language-exchange-1__1" clip-path="url(#language-exchange-1__a)">
    <path d="M10 3.491v.018C10 3.78 9.78 4 9.509 4h-.546c-.107.917-.517 2.904-2.085 4.341.701.354 1.574.595 2.658.648a.49.49 0 0 1 .464.49v.018a.491.491 0 0 1-.516.491C8.015 9.917 6.879 9.54 6 9.002c-.879.538-2.015.915-3.484.986A.492.492 0 0 1 2 9.497v-.018a.49.49 0 0 1 .464-.49c1.085-.054 1.957-.295 2.659-.648A6.071 6.071 0 0 1 3.88 6.727a.492.492 0 0 1 .864-.469 5.004 5.004 0 0 0 1.257 1.519C7.475 6.592 7.863 4.852 7.965 4H2.491A.491.491 0 0 1 2 3.509v-.018C2 3.22 2.22 3 2.491 3H5.5v-.509c0-.271.22-.491.491-.491h.018c.271 0 .491.22.491.491V3h3.009c.271 0 .491.22.491.491ZM12 9c0 1.654-1.346 3-3 3H3c-1.654 0-3-1.346-3-3V3c0-1.654 1.346-3 3-3h6c1.654 0 3 1.346 3 3v6Zm-1-6c0-1.103-.897-2-2-2H3c-1.103 0-2 .897-2 2v6c0 1.103.897 2 2 2h6c1.103 0 2-.897 2-2V3Zm13 12v6c0 1.654-1.346 3-3 3h-6c-1.654 0-3-1.346-3-3v-6c0-1.654 1.346-3 3-3h6c1.654 0 3 1.346 3 3Zm-1 0c0-1.103-.897-2-2-2h-6c-1.103 0-2 .897-2 2v6c0 1.103.897 2 2 2h6c1.103 0 2-.897 2-2v-6ZM20.5 3h-4.21L18.36.847a.5.5 0 0 0-.721-.693l-2.206 2.294a1.489 1.489 0 0 0-.006 2.099l2.212 2.301c.443.474 1.177-.232.721-.693l-2.07-2.153h4.21c1.378 0 2.5 1.122 2.5 2.5v3a.5.5 0 0 0 1 0v-3c0-1.93-1.57-3.5-3.5-3.5V3ZM6.36 17.153a.5.5 0 1 0-.721.693l2.069 2.153H3.5a2.503 2.503 0 0 1-2.5-2.5v-3a.5.5 0 0 0-1 0v3c0 1.93 1.57 3.5 3.5 3.5h4.208l-2.069 2.153c-.456.461.278 1.167.721.693l2.204-2.294c.58-.58.58-1.525.006-2.099l-2.21-2.301v.002Zm13.128-1.957 1.422 6.206c.152.622-.831.837-.965.219L19.571 20h-3.115l-.389 1.625c-.139.616-1.106.39-.951-.226l1.475-6.252c.309-1.521 2.635-1.494 2.897.049ZM19.34 19l-.827-3.58c-.084-.549-.835-.545-.949-.047L16.695 19h2.645Z" class="language-exchange-1__Vector"/>
  </g>
</svg>
