<svg fill="currentColor" viewBox="0 0 24 24">
  <defs>
    <clipPath id="lock-1__a" class="lock-1__a">
      <path d="M0 0h24v24H0z"/>
    </clipPath>
  </defs>
  <g class="lock-1__lock lock-1__1" clip-path="url(#lock-1__a)">
    <path d="M19 8.424V7A7 7 0 1 0 5 7v1.424A5 5 0 0 0 2 13v6a5.006 5.006 0 0 0 5 5h10a5.006 5.006 0 0 0 5-5v-6a5 5 0 0 0-3-4.576ZM7 7a5 5 0 1 1 10 0v1H7V7Zm13 12a3 3 0 0 1-3 3H7a3 3 0 0 1-3-3v-6a3 3 0 0 1 3-3h10a3 3 0 0 1 3 3v6Z" class="lock-1__Vector"/>
    <path d="M12 14a1 1 0 0 0-1 1v2a1 1 0 0 0 2 0v-2a1 1 0 0 0-1-1Z" class="lock-1__Vector"/>
  </g>
</svg>
