<svg fill="currentColor" viewBox="0 0 24 24">
  <defs>
    <clipPath id="logo-website-1__a" class="logo-website-1__a">
      <path d="M0 0h24v24H0z"/>
    </clipPath>
  </defs>
  <g class="logo-website-1__logo-website logo-website-1__1" clip-path="url(#logo-website-1__a)">
    <g class="logo-website-1__layer1">
      <path d="M18.93 0c-.793 0-1.648.33-2.299.867-.794.661-1.18 1.55-1.18 2.685 0 1.632.894 2.788 3.174 4.006 1.466.806 2.525 1.632 3.034 2.417.184.289.285.703.285 1.219 0 1.363-1.213 2.313-2.504 2.313-.192 0-.37.008-.533.024H14.94v.434c1.018.103 1.23 1.712 1.23 2.332 0 .888-.55 2.003-1.852 3.759-1.14-1.425-1.792-2.479-2.688-4.255 1.385-.66 1.894-1.012 2.464-1.652.428-.475.692-1.198.692-1.88 0-1.466-1.14-2.498-2.748-2.498a3.1 3.1 0 0 0-2.28.982c-.02-.042-.04-.086-.062-.129l-3.61-4.45 3.868-3.882C11.338.949 11.664.784 13.048.68V.289H7.715V.68c.245.02.448.021.53.021.61.041.855.206.855.62 0 .453-.469 1.074-1.588 2.127L3.909 6.774V2.54c0-1.508.223-1.735 1.872-1.86V.29H0v.39c1.588.124 1.833.393 1.833 1.86v8.942c0 1.714-.225 1.982-1.833 2.086v.392h5.74v-.392c-1.588-.103-1.831-.352-1.831-1.86V7.85l.529-.434 2.157 2.168c.86.86 1.74 1.81 2.411 2.544a3.308 3.308 0 0 0-.103.824c0 .785.163 1.446.712 2.995l-.773.454c-2.157 1.26-3.196 2.726-3.196 4.461 0 1.962 1.323 3.139 3.48 3.139 1.65 0 2.871-.516 4.398-1.88 1.282 1.343 2.28 1.88 3.46 1.88 1.303 0 2.463-.867 3.074-2.333l-.305-.227c-.651.826-1.1 1.094-1.832 1.094-1.14 0-2.198-.64-3.135-1.9.896-1.218 1.404-1.983 2.035-3.098l.53-.95c.35-.609.697-1.63 1.24-2.204.444-.05.884-.125 1.256-.131C22.169 14.21 24 12.619 24 10.49c0-1.713-1.12-3.035-3.807-4.522-2.137-1.177-2.992-2.086-2.992-3.222 0-1.136.854-1.901 2.116-1.901.916 0 1.771.393 2.484 1.137.63.66.917 1.197 1.242 2.415h.509L23.104 0h-.427c-.082.454-.305.702-.651.702-.204 0-.53-.083-.896-.248C20.377.164 19.643 0 18.93 0Zm-6.85 10.431c.936 0 1.627.744 1.627 1.756 0 1.157-.71 2.045-2.38 2.954-.61-1.301-.815-2.086-.815-3.016 0-.99.632-1.694 1.568-1.694Zm-2.16 6.217c1.221 2.355 1.933 3.49 3.093 4.936-1.2.97-2.015 1.342-2.87 1.342-1.424 0-2.625-1.322-2.625-2.912 0-1.322.63-2.21 2.402-3.366Z" class="logo-website-1__text2"/>
    </g>
  </g>
</svg>
