<svg fill="currentColor" viewBox="0 0 24 24">
  <defs>
    <clipPath id="pencil-1__a" class="pencil-1__a">
      <path d="M0 0h24v24H0z"/>
    </clipPath>
  </defs>
  <g class="pencil-1__pencil pencil-1__1" clip-path="url(#pencil-1__a)">
    <path d="M22.937 1.064a3.64 3.64 0 0 0-5.143 0L1.47 17.388A4.986 4.986 0 0 0 0 20.936v2.06A1.004 1.004 0 0 0 1.004 24h2.06a4.986 4.986 0 0 0 3.548-1.47L22.937 6.207a3.64 3.64 0 0 0 0-5.142ZM5.193 21.111a3.033 3.033 0 0 1-2.129.882H2.007v-1.057a2.99 2.99 0 0 1 .883-2.129L15.278 6.419l2.308 2.308L5.193 21.111ZM21.516 4.787l-2.515 2.516-2.308-2.304 2.516-2.516a1.63 1.63 0 1 1 2.303 2.309l.004-.005Z" class="pencil-1__Vector"/>
  </g>
</svg>
