<svg fill="currentColor" viewBox="0 0 24 24">
  <defs>
    <clipPath id="time-past-1__a" class="time-past-1__a">
      <path d="M0 0h24v24H0z"/>
    </clipPath>
  </defs>
  <g class="time-past-1__time-past time-past-1__1" clip-path="url(#time-past-1__a)">
    <path d="M12 0a11.972 11.972 0 0 0-8 3.073V1a1 1 0 0 0-2 0v3a3 3 0 0 0 3 3h3a1 1 0 0 0 0-2H5a.855.855 0 0 1-.1-.021A9.987 9.987 0 1 1 2 12a1 1 0 1 0-2 0A12 12 0 1 0 12 0Z" class="time-past-1__Vector"/>
    <path d="M12 6a1 1 0 0 0-1 1v5a1 1 0 0 0 .293.707l3 3a1 1 0 0 0 1.414-1.414L13 11.586V7a1 1 0 0 0-1-1Z" class="time-past-1__Vector"/>
  </g>
</svg>
