<svg fill="currentColor" viewBox="0 0 24 24">
  <defs>
    <clipPath id="shopping-cart-add-1__a" class="shopping-cart-add-1__a">
      <path d="M0 0h24v24H0z"/>
    </clipPath>
  </defs>
  <g class="shopping-cart-add-1__shopping-cart-add shopping-cart-add-1__1" clip-path="url(#shopping-cart-add-1__a)">
    <path d="M7 24a2 2 0 1 0 0-4 2 2 0 0 0 0 4Zm10 0a2 2 0 1 0 0-4 2 2 0 0 0 0 4Zm6-21h-2V1a1 1 0 0 0-2 0v2h-2a1 1 0 1 0 0 2h2v2a1 1 0 0 0 2 0V5h2a1 1 0 1 0 0-2Z" class="shopping-cart-add-1__Vector"/>
    <path d="M21.771 9.726a.994.994 0 0 0-1.162.806A3 3 0 0 1 17.657 13H5.418l-.94-8H13a1 1 0 1 0 0-2H4.242L4.2 2.648A3 3 0 0 0 1.222 0H1a1 1 0 0 0 0 2h.222a1 1 0 0 1 .993.883l1.376 11.7A5 5 0 0 0 8.557 19H19a1 1 0 0 0 0-2H8.557a3 3 0 0 1-2.829-2h11.929a5 5 0 0 0 4.921-4.112 1 1 0 0 0-.807-1.162Z" class="shopping-cart-add-1__Vector"/>
  </g>
</svg>
