<svg fill="currentColor" viewBox="0 0 24 24">
  <defs>
    <clipPath id="sign-in-alt-1__a" class="sign-in-alt-1__a">
      <path d="M0 0h24v24H0z"/>
    </clipPath>
  </defs>
  <g class="sign-in-alt-1__sign-in-alt sign-in-alt-1__1" clip-path="url(#sign-in-alt-1__a)">
    <path d="M18.9 0H5.1A5.055 5.055 0 0 0 0 5v3a1 1 0 0 0 2 0V5a3.054 3.054 0 0 1 3.1-3h13.8A3.054 3.054 0 0 1 22 5v14a3.054 3.054 0 0 1-3.1 3H5.1A3.054 3.054 0 0 1 2 19v-3a1 1 0 1 0-2 0v3a5.055 5.055 0 0 0 5.1 5h13.8a5.055 5.055 0 0 0 5.1-5V5a5.055 5.055 0 0 0-5.1-5Z" class="sign-in-alt-1__Vector"/>
    <path d="M3 12a1 1 0 0 0 1 1l13.188-.03-4.323 4.323a1 1 0 1 0 1.414 1.414l4.586-4.586a3 3 0 0 0 0-4.242l-4.584-4.586a1 1 0 0 0-1.414 1.414l4.262 4.263L4 11a1 1 0 0 0-1 1Z" class="sign-in-alt-1__Vector"/>
  </g>
</svg>
