<svg fill="currentColor" viewBox="0 0 24 24">
  <defs>
    <clipPath id="sort-alt-1__a" class="sort-alt-1__a">
      <path d="M0 0h24v24H0z"/>
    </clipPath>
  </defs>
  <g class="sort-alt-1__sort-alt sort-alt-1__1" clip-path="url(#sort-alt-1__a)">
    <path d="M11.293 17.707 8 21V1a1 1 0 1 0-2 0v20l-3.293-3.293a.999.999 0 1 0-1.414 1.414l4.293 4.293c.39.39.902.585 1.414.585.512 0 1.024-.195 1.414-.585l4.293-4.293a.999.999 0 1 0-1.414-1.414ZM22.707 6.293a.999.999 0 0 0 0-1.414L18.414.586A1.995 1.995 0 0 0 17 0c-.512 0-1.024.195-1.414.585l-4.293 4.293a.999.999 0 1 0 1.414 1.414L16 2.999V23a1 1 0 1 0 2 0V3l3.293 3.293a.999.999 0 0 0 1.414 0Z" class="sort-alt-1__Vector"/>
  </g>
</svg>
