<svg width="400" height="400" viewBox="0 0 400 400" fill="none" xmlns="http://www.w3.org/2000/svg">
<rect x="0.5" y="0.5" width="399" height="399" rx="199.5" fill="#E0E0E0"/>
<rect x="0.5" y="0.5" width="399" height="399" rx="199.5" stroke="#AFB1B6"/>
<mask id="mask0_1215_8698" style="mask-type:luminance" maskUnits="userSpaceOnUse" x="190" y="190" width="20" height="20">
<path fill-rule="evenodd" clip-rule="evenodd" d="M190 190H209.96V209.95H190V190Z" fill="white"/>
</mask>
<g mask="url(#mask0_1215_8698)">
<path fill-rule="evenodd" clip-rule="evenodd" d="M195.65 191.5C193.129 191.5 191.5 193.227 191.5 195.899V204.051C191.5 206.724 193.129 208.45 195.65 208.45H204.3C206.827 208.45 208.46 206.724 208.46 204.051V195.899C208.46 193.227 206.827 191.5 204.3 191.5H195.65ZM204.3 209.95H195.65C192.27 209.95 190 207.579 190 204.051V195.899C190 192.371 192.27 190 195.65 190H204.3C207.685 190 209.96 192.371 209.96 195.899V204.051C209.96 207.579 207.685 209.95 204.3 209.95Z" fill="#AFB1B6"/>
</g>
<path fill-rule="evenodd" clip-rule="evenodd" d="M193.281 205.18C193.095 205.18 192.91 205.112 192.765 204.974C192.464 204.69 192.452 204.214 192.737 203.915L194.265 202.302C195.074 201.443 196.439 201.401 197.302 202.211L198.26 203.183C198.527 203.453 198.961 203.458 199.229 203.194C199.33 203.075 201.508 200.43 201.508 200.43C201.922 199.928 202.506 199.618 203.155 199.554C203.805 199.497 204.436 199.686 204.939 200.099C204.982 200.134 205.021 200.168 207.217 202.423C207.506 202.719 207.501 203.194 207.204 203.483C206.908 203.774 206.432 203.765 206.143 203.469C206.143 203.469 204.094 201.366 203.948 201.224C203.793 201.097 203.544 201.023 203.299 201.047C203.05 201.072 202.826 201.191 202.667 201.384C200.343 204.203 200.315 204.23 200.277 204.267C199.419 205.109 198.034 205.095 197.191 204.235C197.191 204.235 196.261 203.291 196.245 203.272C196.014 203.058 195.602 203.072 195.355 203.333L193.825 204.946C193.677 205.102 193.479 205.18 193.281 205.18Z" fill="#AFB1B6"/>
<path fill-rule="evenodd" clip-rule="evenodd" d="M196.558 196.129C196.005 196.129 195.555 196.579 195.555 197.133C195.555 197.687 196.005 198.138 196.559 198.138C197.113 198.138 197.564 197.687 197.564 197.133C197.564 196.58 197.113 196.13 196.558 196.129ZM196.559 199.638C195.178 199.638 194.055 198.514 194.055 197.133C194.055 195.752 195.178 194.629 196.559 194.629C197.941 194.63 199.064 195.754 199.064 197.133C199.064 198.514 197.94 199.638 196.559 199.638Z" fill="#AFB1B6"/>
</svg>
