<svg width="56" height="56" viewBox="0 0 56 56" fill="none" xmlns="http://www.w3.org/2000/svg">
    <rect x="0.5" y="0.5" width="55" height="55" rx="7.5" fill="#E0E0E0"/>
    <rect x="0.5" y="0.5" width="55" height="55" rx="7.5" stroke="#AFB1B6"/>
    <mask id="mask0_1215_9734" style="mask-type:luminance" maskUnits="userSpaceOnUse" x="18" y="18" width="20" height="20">
        <path fill-rule="evenodd" clip-rule="evenodd" d="M18.0004 18H37.96V37.9498H18.0004V18Z" fill="white"/>
    </mask>
    <g mask="url(#mask0_1215_9734)">
        <path fill-rule="evenodd" clip-rule="evenodd" d="M23.6504 19.5C21.1294 19.5 19.5004 21.227 19.5004 23.899V32.051C19.5004 34.724 21.1294 36.45 23.6504 36.45H32.3004C34.8274 36.45 36.4604 34.724 36.4604 32.051V23.899C36.4604 21.227 34.8274 19.5 32.3004 19.5H23.6504ZM32.3004 37.95H23.6504C20.2704 37.95 18.0004 35.579 18.0004 32.051V23.899C18.0004 20.371 20.2704 18 23.6504 18H32.3004C35.6854 18 37.9604 20.371 37.9604 23.899V32.051C37.9604 35.579 35.6854 37.95 32.3004 37.95Z" fill="#AFB1B6"/>
    </g>
    <path fill-rule="evenodd" clip-rule="evenodd" d="M21.2814 33.1799C21.0954 33.1799 20.9104 33.1119 20.7654 32.9739C20.4644 32.6899 20.4524 32.2139 20.7374 31.9149L22.2654 30.3019C23.0744 29.4429 24.4394 29.4009 25.3024 30.2109L26.2604 31.1829C26.5274 31.4529 26.9614 31.4579 27.2294 31.1939C27.3304 31.0749 29.5084 28.4299 29.5084 28.4299C29.9224 27.9279 30.5064 27.6179 31.1554 27.5539C31.8054 27.4969 32.4364 27.6859 32.9394 28.0989C32.9824 28.1339 33.0214 28.1679 35.2174 30.4229C35.5064 30.7189 35.5014 31.1939 35.2044 31.4829C34.9084 31.7739 34.4324 31.7649 34.1434 31.4689C34.1434 31.4689 32.0944 29.3659 31.9484 29.2239C31.7934 29.0969 31.5444 29.0229 31.2994 29.0469C31.0504 29.0719 30.8264 29.1909 30.6674 29.3839C28.3434 32.2029 28.3154 32.2299 28.2774 32.2669C27.4194 33.1089 26.0344 33.0949 25.1914 32.2349C25.1914 32.2349 24.2614 31.2909 24.2454 31.2719C24.0144 31.0579 23.6024 31.0719 23.3554 31.3329L21.8254 32.9459C21.6774 33.1019 21.4794 33.1799 21.2814 33.1799Z" fill="#AFB1B6"/>
    <path fill-rule="evenodd" clip-rule="evenodd" d="M24.5576 24.1289C24.0046 24.1289 23.5546 24.5789 23.5546 25.1329C23.5546 25.6869 24.0046 26.1379 24.5586 26.1379C25.1126 26.1379 25.5636 25.6869 25.5636 25.1329C25.5636 24.5799 25.1126 24.1299 24.5576 24.1289ZM24.5586 27.6379C23.1776 27.6379 22.0546 26.5139 22.0546 25.1329C22.0546 23.7519 23.1776 22.6289 24.5586 22.6289C25.9406 22.6299 27.0636 23.7539 27.0636 25.1329C27.0636 26.5139 25.9396 27.6379 24.5586 27.6379Z" fill="#AFB1B6"/>
</svg>
