<svg width="160" height="160" viewBox="0 0 160 160" fill="none" xmlns="http://www.w3.org/2000/svg">
    <g clip-path="url(#clip0_1215_9729)">
        <circle cx="80" cy="80" r="79.5" fill="#E0E0E0" stroke="#AFB1B6"/>
        <path d="M109 63.333C109 79.3493 96.0163 92.333 80 92.333C63.9837 92.333 51 79.3493 51 63.333C51 47.3168 63.9837 34.333 80 34.333C96.0163 34.333 109 47.3168 109 63.333Z" stroke="#AFB1B6" stroke-width="2"/>
        <path fill-rule="evenodd" clip-rule="evenodd" d="M16.7448 128.985C30.5618 111.481 53.7384 100 79.9988 100C106.259 100 129.436 111.481 143.253 128.985C142.831 129.529 142.403 130.067 141.967 130.599C128.603 113.398 105.93 102 79.9988 102C54.0673 102 31.395 113.398 18.0302 130.599C17.595 130.067 17.1665 129.529 16.7448 128.985Z" fill="#AFB1B6"/>
    </g>
    <defs>
        <clipPath id="clip0_1215_9729">
            <rect width="160" height="160" fill="white"/>
        </clipPath>
    </defs>
</svg>
