<svg fill="currentColor" viewBox="0 0 24 24">
  <path d="M8.995 12a5.995 5.995 0 0 0 5.54-3.704 6.003 6.003 0 0 0-4.37-8.18 5.994 5.994 0 0 0-6.156 2.55A6.002 6.002 0 0 0 8.995 12Zm0-10a3.996 3.996 0 0 1 3.921 4.78 4 4 0 0 1-5.45 2.916A3.998 3.998 0 0 1 4.996 6a4.001 4.001 0 0 1 3.998-4Zm8.996 21a1 1 0 1 1-2 0 7.002 7.002 0 0 0-6.996-7A6.994 6.994 0 0 0 2 23a1 1 0 1 1-2 0c0-2.387.948-4.676 2.635-6.364A8.993 8.993 0 0 1 17.99 23Zm5.704-8.707a1 1 0 1 1-1.413 1.414l-1.793-1.793-1.792 1.793a.999.999 0 0 1-1.413-1.414l1.792-1.793-1.792-1.793a1 1 0 0 1 1.413-1.414l1.793 1.793 1.792-1.793a1 1 0 0 1 1.413 1.414L21.903 12.5l1.792 1.793Z" class="vector__Vector"/>
</svg>
