<svg fill="currentColor" viewBox="0 0 24 24">
  <defs>
    <clipPath id="user-pen-1__a" class="user-pen-1__a">
      <path d="M0 0h24v24H0z"/>
    </clipPath>
  </defs>
  <g class="user-pen-1__user-pen user-pen-1__1" clip-path="url(#user-pen-1__a)">
    <path d="M9 12c3.309 0 6-2.691 6-6s-2.691-6-6-6-6 2.691-6 6 2.691 6 6 6ZM9 2c2.206 0 4 1.794 4 4s-1.794 4-4 4-4-1.794-4-4 1.794-4 4-4Zm1.75 14.22A7.008 7.008 0 0 0 2 23a1 1 0 0 1-2 0c0-4.962 4.038-9 9-9 .762 0 1.519.095 2.25.284a1 1 0 0 1-.499 1.937l-.001-.001Zm12.371-4.341c-1.134-1.134-3.11-1.134-4.243 0l-6.707 6.707a3.976 3.976 0 0 0-1.172 2.829v1.586a1 1 0 0 0 1 1h1.586a3.973 3.973 0 0 0 2.828-1.172l6.707-6.707A2.98 2.98 0 0 0 23.999 14a2.98 2.98 0 0 0-.878-2.121Zm-1.415 2.828-6.708 6.707a1.983 1.983 0 0 1-1.414.586h-.586v-.586c0-.534.208-1.036.586-1.414l6.708-6.707a1.023 1.023 0 0 1 1.414 0 .99.99 0 0 1 .293.707.991.991 0 0 1-.293.707Z" class="user-pen-1__Vector"/>
  </g>
</svg>
