<svg fill="currentColor" viewBox="0 0 24 24">
  <defs>
    <clipPath id="blush-1__a" class="blush-1__a">
      <path d="M0 0h24v24H0z"/>
    </clipPath>
  </defs>
  <g class="blush-1__blush blush-1__1" clip-path="url(#blush-1__a)">
    <path d="m13.729 19.389.217 2.66A8.46 8.46 0 0 1 8.534 24C3.846 24 .033 20.187.033 15.5c0-4.687 3.813-8.5 8.5-8.5 1.563 0 3.023.431 4.283 1.17l.216 2.649A6.472 6.472 0 0 0 8.534 9a6.508 6.508 0 0 0-6.5 6.5c0 3.584 2.916 6.5 6.5 6.5a6.487 6.487 0 0 0 5.195-2.611Zm8.545-11.85L20.955 24H16.11L14.764 7.467l-1.666-4.454C14.23 1.428 16.421-.102 18.533.006c2.116-.114 4.303 1.414 5.435 2.999l-1.694 4.534Zm-5.214 3.464h2.93L20.15 9h-3.253l.163 2.003Zm-1.677-7.588 1.343 3.589h3.612l1.344-3.597c-.857-.816-2.161-1.531-3.148-1.398-.987-.12-2.293.589-3.151 1.406Zm3.727 18.586.72-8.998h-2.608l.732 8.998h1.156ZM3.033 6l1-2 2-1-2-1-1-2-1 2-2 1 2 1 1 2Zm5.666 7.667-1.667.833 1.667.833L9.532 17l.833-1.667 1.667-.833-1.667-.833L9.532 12l-.833 1.667Z" class="blush-1__Vector"/>
  </g>
</svg>
