<svg fill="currentColor" viewBox="0 0 24 24">
  <defs>
    <clipPath id="catalog-magazine-1__a" class="catalog-magazine-1__a">
      <path d="M0 0h24v24H0z"/>
    </clipPath>
  </defs>
  <g class="catalog-magazine-1__catalog-magazine catalog-magazine-1__1" clip-path="url(#catalog-magazine-1__a)">
    <path d="M8.001 7.746c.042.005-.042 0 0 0ZM4.024 5.994a1 1 0 0 0 .752 1.197c1.012.231 2.181.423 3.224.555a1 1 0 0 0 .124-1.992 29.515 29.515 0 0 1-2.902-.512.999.999 0 0 0-1.198.752Zm3.977 9.776c.042.005-.042 0 0 0Zm.123-1.992a29.563 29.563 0 0 1-2.901-.511 1 1 0 1 0-.446 1.949c1.015.232 2.183.424 3.224.554a1 1 0 0 0 .123-1.992Zm-.123-2.032c.042.005-.042 0 0 0Zm.124-1.992a29.515 29.515 0 0 1-2.902-.512 1 1 0 1 0-.446 1.949c1.012.231 2.181.423 3.224.555a1 1 0 0 0 .124-1.992Zm7.874 6.017c.041 0-.042.005 0 0Zm4.236 4.675a30.762 30.762 0 0 1-3.087.649c1.745.434 3.807.815 5.896.907a1 1 0 0 1-.043 1.999h-.045c-4.949-.217-9.601-1.893-10.956-2.421-1.355.528-6.006 2.204-10.956 2.421H.999a1 1 0 0 1-.043-1.999c2.089-.092 4.151-.473 5.896-.907a30.723 30.723 0 0 1-3.088-.649C1.548 19.858 0 17.863 0 15.594V4.5C0 3.098.635 1.798 1.743.936A4.42 4.42 0 0 1 5.566.128c2.576.653 4.561.946 6.437.952 1.869-.006 3.854-.299 6.431-.952a4.423 4.423 0 0 1 3.823.808A4.49 4.49 0 0 1 24 4.5v11.094c0 2.269-1.548 4.264-3.765 4.852ZM11 3.053c-1.755-.09-3.627-.403-5.924-.985a2.453 2.453 0 0 0-2.104.446A2.501 2.501 0 0 0 2 4.5v11.094c0 1.362.936 2.562 2.276 2.918 2.138.567 4.395.892 6.724.97V3.053Zm8.723 15.459C21.064 18.157 22 16.956 22 15.594V4.5c0-.781-.354-1.505-.972-1.986a2.423 2.423 0 0 0-2.104-.446c-2.299.583-4.172.896-5.924.986v16.429a30.14 30.14 0 0 0 6.723-.97v-.001ZM15.999 7.746c.041 0-.043.005 0 0Zm2.778-2.504c-.948.217-1.925.389-2.902.512a.999.999 0 0 0 .124 1.992 34.116 34.116 0 0 0 3.224-.555 1 1 0 1 0-.446-1.949Zm-2.778 6.504c.041 0-.043.005 0 0Zm2.778-2.504c-.948.217-1.925.389-2.902.512a.999.999 0 0 0 .124 1.992 34.116 34.116 0 0 0 3.224-.555 1 1 0 1 0-.446-1.949Zm0 4.025c-.951.217-1.927.389-2.901.511a1 1 0 0 0 .123 1.993c1.04-.13 2.208-.322 3.224-.555a1 1 0 1 0-.446-1.949Z" class="catalog-magazine-1__Vector"/>
  </g>
</svg>
