<svg fill="currentColor" viewBox="0 0 24 24">
  <defs>
    <clipPath id="plug-cable-1__a" class="plug-cable-1__a">
      <path d="M0 0h24v24H0z"/>
    </clipPath>
  </defs>
  <g class="plug-cable-1__plug-cable plug-cable-1__1" clip-path="url(#plug-cable-1__a)">
    <path d="M23 10h-2c-2.757 0-5 2.243-5 5v3c0 2.206-1.794 4-4 4s-4-1.794-4-4v-3.084A6.009 6.009 0 0 0 13 9V7a1 1 0 1 0 0-2h-2V1a1 1 0 1 0-2 0v4H5V1a1 1 0 1 0-2 0v4H1a1 1 0 1 0 0 2v2a6.009 6.009 0 0 0 5 5.916V18c0 3.309 2.691 6 6 6s6-2.691 6-6v-3c0-1.654 1.346-3 3-3h2a1 1 0 1 0 0-2ZM3 9V7h8v2c0 2.206-1.794 4-4 4s-4-1.794-4-4Z" class="plug-cable-1__Vector"/>
  </g>
</svg>
