<svg fill="currentColor" viewBox="0 0 24 24">
  <defs>
    <clipPath id="tshirt-1__a" class="tshirt-1__a">
      <path d="M0 0h24v24H0z"/>
    </clipPath>
  </defs>
  <g class="tshirt-1__tshirt tshirt-1__1" clip-path="url(#tshirt-1__a)">
    <path d="M20.815 1.195C19.338.402 17.783 0 16.19 0H7.81C6.218 0 4.662.402 3.185 1.195 1.221 2.25 0 4.335 0 6.636v2.388c0 1.654 1.346 3 3 3h1V19c0 2.757 2.243 5 5 5h6c2.757 0 5-2.243 5-5v-7h1c1.654 0 3-1.346 3-3V6.636c0-2.301-1.221-4.387-3.185-5.441ZM14.894 2a3.087 3.087 0 0 1-2.893 2 3.087 3.087 0 0 1-2.893-2h5.787-.001Zm7.107 7c0 .551-.449 1-1 1h-1V7a1 1 0 0 0-2 0v12c0 1.654-1.346 3-3 3h-6c-1.654 0-3-1.346-3-3V7a1 1 0 0 0-2 0v3.024h-1c-.551 0-1-.449-1-1V6.636c0-1.563.817-2.973 2.131-3.679a7.86 7.86 0 0 1 2.897-.907A5.088 5.088 0 0 0 12.001 6a5.088 5.088 0 0 0 4.972-3.95c.988.106 1.96.404 2.897.907 1.314.706 2.131 2.116 2.131 3.679V9Z" class="tshirt-1__Vector"/>
  </g>
</svg>
