<svg fill="currentColor" viewBox="0 0 24 24">
  <defs>
    <clipPath id="gym-1__a" class="gym-1__a">
      <path d="M0 0h24v24H0z"/>
    </clipPath>
  </defs>
  <g class="gym-1__gym gym-1__1" clip-path="url(#gym-1__a)">
    <path d="M22.942 6.837 20.76 4.654l.947-.947a1 1 0 1 0-1.414-1.414l-.947.947-2.183-2.182a3.7 3.7 0 0 0-5.105 0 3.61 3.61 0 0 0 0 5.106l2.182 2.182-5.894 5.894-2.183-2.182a3.7 3.7 0 0 0-5.105 0 3.609 3.609 0 0 0 0 5.106l2.182 2.182-.947.947a1 1 0 1 0 1.414 1.414l.947-.947 2.183 2.182a3.608 3.608 0 0 0 5.888-1.171 3.606 3.606 0 0 0-.783-3.934L9.76 15.655l5.9-5.895 2.182 2.182a3.609 3.609 0 1 0 5.105-5.105h-.005ZM11 20.39a1.599 1.599 0 0 1-.472 1.138 1.647 1.647 0 0 1-2.277 0l-5.779-5.779a1.61 1.61 0 0 1 2.277-2.277l5.779 5.779A1.6 1.6 0 0 1 11 20.39Zm10.528-9.862a1.647 1.647 0 0 1-2.277 0l-5.779-5.779a1.61 1.61 0 0 1 2.277-2.277l5.779 5.779a1.608 1.608 0 0 1 0 2.277Z" class="gym-1__Vector"/>
  </g>
</svg>
